# xmcd
#
# Track frame offsets:
# 183
# 10575
# 22995
# 33798
# 43318
# 60160
# 71085
# 81805
# 93430
# 109920
# 122375
# 133208
# 147723
# 158988
# 170290
# 184100
# 194718
#
# Disc length: 2766 seconds
#
#
# Revision: 1
# Processed by: cddbd v1.5.1PL2 Copyright (c) Steve Scherf et al.
# Submitted via: FreeRIP 2.60 
#
DISCID=e70acc11
DTITLE=Various Artist - The Giants Of Country and Western
DYEAR=1980
DGENRE=country
TTITLE0=Jimmie Rodgers - Kisses Sweeter Than Wine
TTITLE1=Faron Young - Country Girl
TTITLE2=Judy Stone - Would You Lay With Me In A Field Of Stone
TTITLE3=Duane Eddy - 40 Miles Of Bad Road
TTITLE4=Lynn Anderson - Blue Bayou
TTITLE5=Johnny Paycheck - Heartbreak Tennessee
TTITLE6=Reg Lindsay - On The Road Again
TTITLE7=Lee Conway - The Stories We Can tell
TTITLE8=Charlie McCoy - Orange Blosso\\m Special
TTITLE9=Roy Orbison - Crying
TTITLE10=Mickey Gilley - World Of My Own
TTITLE11=Dolly Parton/Willie Nelson - Everything Is Beautiful
TTITLE12=Marty Robbins - Restless Cattle
TTITLE13=Patsy Cline - I've Loved and Lost Again
TTITLE14=Dave Dudley - Phantom 309
TTITLE15=Don Williams - Always Something There To Remind Me
TTITLE16=George Jones - I Love You Because
EXTD=
EXTT0=
EXTT1=
EXTT2=
EXTT3=
EXTT4=
EXTT5=
EXTT6=
EXTT7=
EXTT8=
EXTT9=
EXTT10=
EXTT11=
EXTT12=
EXTT13=
EXTT14=
EXTT15=
EXTT16=
PLAYORDER=
